<svg width="707" height="545" viewBox="0 0 707 545" fill="none" xmlns="http://www.w3.org/2000/svg">
<path d="M315.009 3.24788C365.092 -3.75552 415.791 3.37084 461.555 23.3407C478.525 9.1604 500.375 0.625808 524.218 0.625808C578.223 0.626018 622.001 44.4047 622.002 98.409C622.002 121.67 613.878 143.034 600.315 159.82C623.028 209.602 630.326 265.363 620.779 319.805C609.157 386.076 573.399 445.694 520.407 487.153C467.414 528.612 400.944 548.973 333.823 544.305C271.788 539.992 213.262 514.583 167.845 472.552C164.929 469.972 162.126 467.264 159.445 464.436C158.606 463.591 157.772 462.739 156.944 461.881C110.199 413.487 83.036 349.494 80.6978 282.252C78.3596 215.009 101.011 149.283 144.282 97.7596C187.552 46.2358 248.374 12.5659 315.009 3.24788ZM430.549 70.2528C396.458 57.1503 359.348 52.7657 322.651 57.8973C269.526 65.3262 221.036 92.1695 186.539 133.247C173.199 149.131 162.319 166.71 154.096 185.395C191.238 143.906 245.048 117.818 304.915 117.818C416.985 117.818 507.837 209.23 507.837 321.991C507.837 379.552 484.161 431.546 446.076 468.661C460.292 461.884 473.826 453.535 486.406 443.693C528.654 410.64 557.162 363.109 566.427 310.273C573.476 270.076 569.004 228.977 553.921 191.597C544.554 194.581 534.574 196.193 524.218 196.193C470.214 196.193 426.434 152.414 426.434 98.409C426.434 88.621 427.873 79.1692 430.549 70.2528ZM304.915 173.922C240.399 173.922 185.582 215.694 165.717 273.823C189.066 252.254 220.119 239.1 254.205 239.1C326.765 239.1 385.587 298.703 385.587 372.226C385.587 407.224 372.258 439.067 350.464 462.829C409.445 443.531 452.077 387.771 452.077 321.991C452.077 240.215 386.19 173.922 304.915 173.922ZM254.205 295.061C212.146 295.062 178.051 329.61 178.051 372.226C178.051 389.406 183.593 405.274 192.962 418.097C197.988 424.017 203.469 429.533 209.351 434.592C221.932 443.898 237.435 449.39 254.205 449.39C296.263 449.39 330.359 414.843 330.359 372.226C330.359 329.61 296.263 295.061 254.205 295.061ZM524.218 54.4061C499.916 54.4061 480.216 74.1071 480.215 98.409C480.215 122.711 499.916 142.412 524.218 142.412C548.52 142.412 568.22 122.711 568.22 98.409C568.22 74.1072 548.52 54.4063 524.218 54.4061Z" fill="url(#paint0_linear_9_89)"/>
<path d="M663.315 318.883C657.683 318.883 652.605 317.39 648.083 314.403C643.645 311.331 640.104 307.15 637.459 301.859C634.899 296.483 633.619 290.382 633.619 283.555C633.619 276.558 634.899 270.414 637.459 265.123C640.019 259.833 643.56 255.694 648.083 252.707C652.605 249.635 657.811 248.099 663.699 248.099C666.856 248.099 669.757 248.526 672.403 249.379C675.048 250.233 677.352 251.47 679.315 253.091C681.277 254.713 682.984 256.547 684.435 258.595C685.885 260.643 687.08 262.862 688.019 265.251L683.155 264.995V249.507H706.579V317.731H682.643V301.091L687.891 301.347C687.123 303.822 685.971 306.126 684.435 308.259C682.984 310.393 681.192 312.27 679.059 313.891C676.925 315.427 674.536 316.665 671.891 317.603C669.331 318.457 666.472 318.883 663.315 318.883ZM670.099 299.299C672.829 299.299 675.176 298.702 677.139 297.507C679.101 296.227 680.595 294.393 681.619 292.003C682.728 289.614 683.283 286.798 683.283 283.555C683.283 280.227 682.728 277.369 681.619 274.979C680.595 272.59 679.101 270.798 677.139 269.603C675.176 268.323 672.829 267.683 670.099 267.683C667.368 267.683 665.021 268.323 663.059 269.603C661.181 270.798 659.731 272.59 658.707 274.979C657.683 277.369 657.171 280.227 657.171 283.555C657.171 286.798 657.683 289.614 658.707 292.003C659.731 294.393 661.181 296.227 663.059 297.507C665.021 298.702 667.368 299.299 670.099 299.299Z" fill="black"/>
<path d="M578.22 319.011C571.478 319.011 565.42 317.475 560.044 314.403C554.753 311.331 550.572 307.15 547.5 301.859C544.428 296.483 542.892 290.382 542.892 283.555C542.892 276.729 544.428 270.67 547.5 265.379C550.572 260.003 554.753 255.779 560.044 252.707C565.42 249.635 571.478 248.099 578.22 248.099C584.364 248.099 589.996 249.081 595.116 251.043C600.321 253.006 604.46 255.822 607.532 259.491L594.604 274.851C593.665 273.657 592.47 272.59 591.02 271.651C589.569 270.627 587.948 269.859 586.156 269.347C584.449 268.75 582.529 268.451 580.396 268.451C577.58 268.451 575.105 269.091 572.972 270.371C570.838 271.651 569.174 273.443 567.98 275.747C566.87 277.966 566.316 280.526 566.316 283.427C566.316 286.329 566.87 288.889 567.98 291.107C569.089 293.326 570.71 295.118 572.844 296.483C575.062 297.849 577.58 298.531 580.396 298.531C582.529 298.531 584.449 298.275 586.156 297.763C587.948 297.251 589.526 296.526 590.892 295.587C592.342 294.649 593.58 293.539 594.604 292.259L607.532 307.747C604.374 311.331 600.193 314.105 594.988 316.067C589.868 318.03 584.278 319.011 578.22 319.011Z" fill="black"/>
<path d="M469.026 317.731V249.507H491.298L492.578 271.907L487.586 268.067C488.695 264.313 490.402 260.942 492.706 257.955C495.095 254.883 497.954 252.494 501.282 250.787C504.61 248.995 508.108 248.099 511.778 248.099C513.314 248.099 514.764 248.227 516.13 248.483C517.495 248.654 518.775 248.91 519.97 249.251L513.442 275.619C512.503 275.022 511.18 274.51 509.474 274.083C507.767 273.571 505.932 273.315 503.97 273.315C502.263 273.315 500.727 273.614 499.362 274.211C497.996 274.723 496.844 275.491 495.906 276.515C494.967 277.539 494.242 278.777 493.73 280.227C493.218 281.593 492.962 283.214 492.962 285.091V317.731H469.026Z" fill="black"/>
<path d="M387.375 318.883C381.743 318.883 376.665 317.39 372.143 314.403C367.705 311.331 364.164 307.15 361.519 301.859C358.959 296.483 357.679 290.382 357.679 283.555C357.679 276.558 358.959 270.414 361.519 265.123C364.079 259.833 367.62 255.694 372.143 252.707C376.665 249.635 381.871 248.099 387.759 248.099C390.916 248.099 393.817 248.526 396.463 249.379C399.108 250.233 401.412 251.47 403.375 253.091C405.337 254.713 407.044 256.547 408.495 258.595C409.945 260.643 411.14 262.862 412.079 265.251L407.215 264.995V249.507H430.639V317.731H406.703V301.091L411.951 301.347C411.183 303.822 410.031 306.126 408.495 308.259C407.044 310.393 405.252 312.27 403.119 313.891C400.985 315.427 398.596 316.665 395.951 317.603C393.391 318.457 390.532 318.883 387.375 318.883ZM394.159 299.299C396.889 299.299 399.236 298.702 401.199 297.507C403.161 296.227 404.655 294.393 405.679 292.003C406.788 289.614 407.343 286.798 407.343 283.555C407.343 280.227 406.788 277.369 405.679 274.979C404.655 272.59 403.161 270.798 401.199 269.603C399.236 268.323 396.889 267.683 394.159 267.683C391.428 267.683 389.081 268.323 387.119 269.603C385.241 270.798 383.791 272.59 382.767 274.979C381.743 277.369 381.231 280.227 381.231 283.555C381.231 286.798 381.743 289.614 382.767 292.003C383.791 294.393 385.241 296.227 387.119 297.507C389.081 298.702 391.428 299.299 394.159 299.299Z" fill="black"/>
<path d="M216.566 317.731V249.507H238.838L239.734 260.771L236.79 260.259C237.984 258.041 239.392 256.163 241.014 254.627C242.635 253.091 244.427 251.854 246.39 250.915C248.352 249.891 250.358 249.166 252.406 248.739C254.454 248.313 256.416 248.099 258.294 248.099C261.451 248.099 264.352 248.569 266.998 249.507C269.728 250.361 272.118 251.854 274.166 253.987C276.299 256.121 278.048 259.107 279.414 262.947L275.702 262.691L276.726 260.899C278.006 258.681 279.499 256.803 281.206 255.267C282.998 253.731 284.96 252.409 287.094 251.299C289.227 250.19 291.403 249.379 293.622 248.867C295.926 248.355 298.102 248.099 300.15 248.099C305.696 248.099 310.347 249.166 314.102 251.299C317.856 253.433 320.672 256.59 322.55 260.771C324.427 264.867 325.366 269.902 325.366 275.875V317.731H301.558V277.795C301.558 275.577 301.216 273.742 300.534 272.291C299.851 270.755 298.87 269.603 297.59 268.835C296.31 268.067 294.731 267.683 292.854 267.683C291.403 267.683 290.038 267.939 288.758 268.451C287.563 268.878 286.539 269.561 285.686 270.499C284.832 271.353 284.15 272.334 283.638 273.443C283.126 274.467 282.87 275.705 282.87 277.155V317.731H259.062V277.667C259.062 275.534 258.72 273.742 258.038 272.291C257.355 270.841 256.374 269.731 255.094 268.963C253.814 268.11 252.235 267.683 250.358 267.683C248.907 267.683 247.542 267.939 246.262 268.451C245.067 268.878 244.043 269.518 243.19 270.371C242.336 271.225 241.654 272.206 241.142 273.315C240.63 274.425 240.374 275.662 240.374 277.027V317.731H216.566Z" fill="black"/>
<path d="M97.4996 317.731V228.131H136.156C142.897 228.131 149.041 229.241 154.588 231.459C160.134 233.678 164.956 236.793 169.052 240.803C173.148 244.729 176.305 249.422 178.524 254.883C180.742 260.345 181.852 266.361 181.852 272.931C181.852 279.417 180.742 285.433 178.524 290.979C176.305 296.441 173.148 301.177 169.052 305.187C164.956 309.113 160.134 312.185 154.588 314.403C149.041 316.622 142.897 317.731 136.156 317.731H97.4996ZM122.844 301.603L118.876 295.843H135.516C138.673 295.843 141.489 295.289 143.964 294.179C146.524 293.07 148.7 291.534 150.492 289.571C152.284 287.523 153.692 285.091 154.716 282.275C155.74 279.459 156.252 276.345 156.252 272.931C156.252 269.518 155.74 266.403 154.716 263.587C153.692 260.771 152.241 258.382 150.364 256.419C148.572 254.371 146.438 252.793 143.964 251.683C141.489 250.574 138.673 250.019 135.516 250.019H118.492L122.844 244.515V301.603Z" fill="black"/>
<path d="M0.367615 317.731V296.995H15.9836V248.867H0.367615V228.131H56.8156V248.867H41.3276V296.995H56.8156V317.731H0.367615Z" fill="black"/>
<path d="M601.874 350.006C600.8 350.006 599.834 349.753 598.976 349.247C598.117 348.741 597.435 348.059 596.929 347.2C596.423 346.326 596.17 345.352 596.17 344.279C596.17 343.221 596.423 342.27 596.929 341.427C597.435 340.568 598.117 339.886 598.976 339.38C599.834 338.874 600.8 338.621 601.874 338.621C602.932 338.621 603.89 338.874 604.749 339.38C605.623 339.871 606.313 340.545 606.819 341.404C607.325 342.263 607.578 343.221 607.578 344.279C607.578 345.352 607.325 346.326 606.819 347.2C606.313 348.059 605.623 348.741 604.749 349.247C603.89 349.753 602.932 350.006 601.874 350.006ZM601.874 348.005C602.564 348.005 603.177 347.844 603.714 347.522C604.25 347.2 604.672 346.763 604.979 346.211C605.285 345.644 605.439 345 605.439 344.279C605.439 343.574 605.278 342.945 604.956 342.393C604.649 341.841 604.227 341.412 603.691 341.105C603.169 340.783 602.564 340.622 601.874 340.622C601.184 340.622 600.57 340.783 600.034 341.105C599.497 341.412 599.075 341.841 598.769 342.393C598.462 342.945 598.309 343.574 598.309 344.279C598.309 345 598.462 345.644 598.769 346.211C599.075 346.763 599.497 347.2 600.034 347.522C600.57 347.844 601.184 348.005 601.874 348.005Z" fill="black"/>
<path d="M584.439 350.006C583.427 350.006 582.522 349.761 581.725 349.27C580.928 348.764 580.291 348.082 579.816 347.223C579.356 346.364 579.126 345.398 579.126 344.325C579.126 343.252 579.356 342.286 579.816 341.427C580.291 340.568 580.928 339.886 581.725 339.38C582.522 338.874 583.427 338.621 584.439 338.621C585.252 338.621 585.988 338.797 586.647 339.15C587.306 339.487 587.835 339.963 588.234 340.576C588.648 341.174 588.878 341.872 588.924 342.669V345.958C588.878 346.74 588.656 347.438 588.257 348.051C587.858 348.664 587.329 349.147 586.67 349.5C586.011 349.837 585.267 350.006 584.439 350.006ZM584.784 348.051C585.474 348.051 586.072 347.89 586.578 347.568C587.099 347.246 587.506 346.809 587.797 346.257C588.088 345.69 588.234 345.046 588.234 344.325C588.234 343.574 588.081 342.922 587.774 342.37C587.483 341.818 587.076 341.381 586.555 341.059C586.049 340.737 585.451 340.576 584.761 340.576C584.071 340.576 583.465 340.737 582.944 341.059C582.423 341.381 582.009 341.826 581.702 342.393C581.411 342.945 581.265 343.581 581.265 344.302C581.265 345.038 581.411 345.69 581.702 346.257C582.009 346.809 582.423 347.246 582.944 347.568C583.481 347.89 584.094 348.051 584.784 348.051ZM590.189 349.776H588.096V346.832L588.487 344.164L588.096 341.519V333.354H590.189V349.776Z" fill="black"/>
<path d="M567.395 350.006C566.399 350.006 565.494 349.761 564.681 349.27C563.869 348.764 563.225 348.082 562.749 347.223C562.289 346.364 562.059 345.398 562.059 344.325C562.059 343.252 562.289 342.286 562.749 341.427C563.225 340.568 563.861 339.886 564.658 339.38C565.471 338.874 566.383 338.621 567.395 338.621C568.223 338.621 568.959 338.797 569.603 339.15C570.263 339.487 570.792 339.963 571.19 340.576C571.589 341.174 571.811 341.872 571.857 342.669V345.958C571.811 346.74 571.589 347.438 571.19 348.051C570.807 348.664 570.286 349.147 569.626 349.5C568.982 349.837 568.239 350.006 567.395 350.006ZM567.74 348.051C568.768 348.051 569.596 347.706 570.224 347.016C570.853 346.311 571.167 345.414 571.167 344.325C571.167 343.574 571.022 342.922 570.73 342.37C570.454 341.803 570.056 341.366 569.534 341.059C569.013 340.737 568.407 340.576 567.717 340.576C567.027 340.576 566.414 340.737 565.877 341.059C565.356 341.381 564.942 341.826 564.635 342.393C564.344 342.945 564.198 343.581 564.198 344.302C564.198 345.038 564.344 345.69 564.635 346.257C564.942 346.809 565.364 347.246 565.9 347.568C566.437 347.89 567.05 348.051 567.74 348.051ZM571.029 349.776V346.832L571.42 344.164L571.029 341.519V338.851H573.122V349.776H571.029Z" fill="black"/>
<path d="M550.197 349.776V338.851H552.267V349.776H550.197ZM552.267 343.543L551.485 343.198C551.485 341.803 551.807 340.691 552.451 339.863C553.095 339.035 554.023 338.621 555.234 338.621C555.786 338.621 556.285 338.721 556.729 338.92C557.174 339.104 557.588 339.418 557.971 339.863L556.614 341.266C556.384 341.021 556.131 340.844 555.855 340.737C555.579 340.63 555.257 340.576 554.889 340.576C554.123 340.576 553.494 340.821 553.003 341.312C552.513 341.803 552.267 342.546 552.267 343.543Z" fill="black"/>
<path d="M539.051 350.006C538.162 350.006 537.357 349.807 536.636 349.408C535.931 348.994 535.379 348.427 534.98 347.706C534.581 346.985 534.382 346.15 534.382 345.199V338.851H536.452V345.107C536.452 345.705 536.552 346.226 536.751 346.671C536.966 347.1 537.272 347.43 537.671 347.66C538.07 347.89 538.537 348.005 539.074 348.005C539.887 348.005 540.523 347.752 540.983 347.246C541.443 346.725 541.673 346.012 541.673 345.107V338.851H543.743V345.199C543.743 346.15 543.544 346.985 543.145 347.706C542.746 348.427 542.194 348.994 541.489 349.408C540.799 349.807 539.986 350.006 539.051 350.006Z" fill="black"/>
<path d="M522.19 354.583C521.07 354.583 520.074 354.376 519.2 353.962C518.341 353.548 517.651 352.965 517.13 352.214L518.464 350.857C518.908 351.424 519.437 351.854 520.051 352.145C520.664 352.452 521.392 352.605 522.236 352.605C523.355 352.605 524.237 352.306 524.881 351.708C525.54 351.125 525.87 350.336 525.87 349.339V346.625L526.238 344.164L525.87 341.726V338.851H527.94V349.339C527.94 350.382 527.694 351.294 527.204 352.076C526.728 352.858 526.054 353.471 525.18 353.916C524.321 354.361 523.324 354.583 522.19 354.583ZM522.19 349.592C521.193 349.592 520.296 349.354 519.499 348.879C518.717 348.404 518.096 347.752 517.636 346.924C517.176 346.081 516.946 345.138 516.946 344.095C516.946 343.052 517.176 342.125 517.636 341.312C518.096 340.484 518.717 339.832 519.499 339.357C520.296 338.866 521.193 338.621 522.19 338.621C523.048 338.621 523.807 338.79 524.467 339.127C525.126 339.464 525.647 339.94 526.031 340.553C526.429 341.151 526.644 341.856 526.675 342.669V345.567C526.629 346.364 526.406 347.07 526.008 347.683C525.624 348.281 525.103 348.749 524.444 349.086C523.784 349.423 523.033 349.592 522.19 349.592ZM522.604 347.637C523.278 347.637 523.869 347.491 524.375 347.2C524.896 346.909 525.295 346.502 525.571 345.981C525.847 345.444 525.985 344.823 525.985 344.118C525.985 343.413 525.839 342.799 525.548 342.278C525.272 341.741 524.881 341.327 524.375 341.036C523.869 340.729 523.271 340.576 522.581 340.576C521.891 340.576 521.285 340.729 520.764 341.036C520.242 341.327 519.828 341.741 519.522 342.278C519.23 342.799 519.085 343.405 519.085 344.095C519.085 344.785 519.23 345.398 519.522 345.935C519.828 346.472 520.242 346.893 520.764 347.2C521.3 347.491 521.914 347.637 522.604 347.637Z" fill="black"/>
<path d="M506.708 350.006C505.619 350.006 504.638 349.761 503.764 349.27C502.89 348.764 502.2 348.082 501.694 347.223C501.188 346.364 500.935 345.391 500.935 344.302C500.935 343.229 501.18 342.263 501.671 341.404C502.177 340.545 502.851 339.871 503.695 339.38C504.553 338.874 505.512 338.621 506.57 338.621C507.582 338.621 508.471 338.851 509.238 339.311C510.02 339.771 510.625 340.407 511.055 341.22C511.499 342.033 511.722 342.953 511.722 343.98C511.722 344.133 511.714 344.302 511.699 344.486C511.683 344.655 511.653 344.854 511.607 345.084H502.384V343.359H510.503L509.744 344.026C509.744 343.29 509.613 342.669 509.353 342.163C509.092 341.642 508.724 341.243 508.249 340.967C507.773 340.676 507.198 340.53 506.524 340.53C505.818 340.53 505.197 340.683 504.661 340.99C504.124 341.297 503.71 341.726 503.419 342.278C503.127 342.83 502.982 343.482 502.982 344.233C502.982 345 503.135 345.674 503.442 346.257C503.748 346.824 504.185 347.269 504.753 347.591C505.32 347.898 505.972 348.051 506.708 348.051C507.321 348.051 507.881 347.944 508.387 347.729C508.908 347.514 509.353 347.192 509.721 346.763L511.055 348.12C510.533 348.733 509.889 349.201 509.123 349.523C508.371 349.845 507.566 350.006 506.708 350.006Z" fill="black"/>
<path d="M491.625 350.006C491.012 350.006 490.429 349.929 489.877 349.776C489.34 349.607 488.842 349.377 488.382 349.086C487.922 348.779 487.523 348.419 487.186 348.005L488.52 346.671C488.919 347.162 489.379 347.53 489.9 347.775C490.421 348.005 491.004 348.12 491.648 348.12C492.292 348.12 492.79 348.013 493.143 347.798C493.496 347.568 493.672 347.254 493.672 346.855C493.672 346.456 493.526 346.15 493.235 345.935C492.959 345.705 492.599 345.521 492.154 345.383C491.709 345.23 491.234 345.084 490.728 344.946C490.237 344.793 489.77 344.601 489.325 344.371C488.88 344.141 488.512 343.827 488.221 343.428C487.945 343.029 487.807 342.5 487.807 341.841C487.807 341.182 487.968 340.614 488.29 340.139C488.612 339.648 489.057 339.273 489.624 339.012C490.207 338.751 490.904 338.621 491.717 338.621C492.576 338.621 493.335 338.774 493.994 339.081C494.669 339.372 495.221 339.817 495.65 340.415L494.316 341.749C494.009 341.35 493.626 341.044 493.166 340.829C492.721 340.614 492.215 340.507 491.648 340.507C491.05 340.507 490.59 340.614 490.268 340.829C489.961 341.028 489.808 341.312 489.808 341.68C489.808 342.048 489.946 342.332 490.222 342.531C490.498 342.73 490.858 342.899 491.303 343.037C491.763 343.175 492.238 343.321 492.729 343.474C493.22 343.612 493.687 343.804 494.132 344.049C494.577 344.294 494.937 344.624 495.213 345.038C495.504 345.452 495.65 345.996 495.65 346.671C495.65 347.698 495.282 348.511 494.546 349.109C493.825 349.707 492.852 350.006 491.625 350.006Z" fill="black"/>
<path d="M475.731 350.006C474.735 350.006 473.83 349.761 473.017 349.27C472.205 348.764 471.561 348.082 471.085 347.223C470.625 346.364 470.395 345.398 470.395 344.325C470.395 343.252 470.625 342.286 471.085 341.427C471.561 340.568 472.197 339.886 472.994 339.38C473.807 338.874 474.719 338.621 475.731 338.621C476.559 338.621 477.295 338.797 477.939 339.15C478.599 339.487 479.128 339.963 479.526 340.576C479.925 341.174 480.147 341.872 480.193 342.669V345.958C480.147 346.74 479.925 347.438 479.526 348.051C479.143 348.664 478.622 349.147 477.962 349.5C477.318 349.837 476.575 350.006 475.731 350.006ZM476.076 348.051C477.104 348.051 477.932 347.706 478.56 347.016C479.189 346.311 479.503 345.414 479.503 344.325C479.503 343.574 479.358 342.922 479.066 342.37C478.79 341.803 478.392 341.366 477.87 341.059C477.349 340.737 476.743 340.576 476.053 340.576C475.363 340.576 474.75 340.737 474.213 341.059C473.692 341.381 473.278 341.826 472.971 342.393C472.68 342.945 472.534 343.581 472.534 344.302C472.534 345.038 472.68 345.69 472.971 346.257C473.278 346.809 473.7 347.246 474.236 347.568C474.773 347.89 475.386 348.051 476.076 348.051ZM479.365 349.776V346.832L479.756 344.164L479.365 341.519V338.851H481.458V349.776H479.365Z" fill="black"/>
<path d="M449.305 349.776V338.851H451.375V349.776H449.305ZM451.375 343.543L450.593 343.198C450.593 341.803 450.915 340.691 451.559 339.863C452.203 339.035 453.131 338.621 454.342 338.621C454.894 338.621 455.393 338.721 455.837 338.92C456.282 339.104 456.696 339.418 457.079 339.863L455.722 341.266C455.492 341.021 455.239 340.844 454.963 340.737C454.687 340.63 454.365 340.576 453.997 340.576C453.231 340.576 452.602 340.821 452.111 341.312C451.621 341.803 451.375 342.546 451.375 343.543Z" fill="black"/>
<path d="M437.589 350.006C436.516 350.006 435.55 349.753 434.691 349.247C433.832 348.741 433.15 348.059 432.644 347.2C432.138 346.326 431.885 345.352 431.885 344.279C431.885 343.221 432.138 342.27 432.644 341.427C433.15 340.568 433.832 339.886 434.691 339.38C435.55 338.874 436.516 338.621 437.589 338.621C438.647 338.621 439.605 338.874 440.464 339.38C441.338 339.871 442.028 340.545 442.534 341.404C443.04 342.263 443.293 343.221 443.293 344.279C443.293 345.352 443.04 346.326 442.534 347.2C442.028 348.059 441.338 348.741 440.464 349.247C439.605 349.753 438.647 350.006 437.589 350.006ZM437.589 348.005C438.279 348.005 438.892 347.844 439.429 347.522C439.966 347.2 440.387 346.763 440.694 346.211C441.001 345.644 441.154 345 441.154 344.279C441.154 343.574 440.993 342.945 440.671 342.393C440.364 341.841 439.943 341.412 439.406 341.105C438.885 340.783 438.279 340.622 437.589 340.622C436.899 340.622 436.286 340.783 435.749 341.105C435.212 341.412 434.791 341.841 434.484 342.393C434.177 342.945 434.024 343.574 434.024 344.279C434.024 345 434.177 345.644 434.484 346.211C434.791 346.763 435.212 347.2 435.749 347.522C436.286 347.844 436.899 348.005 437.589 348.005Z" fill="black"/>
<path d="M423.819 349.776V333.354H425.889V349.776H423.819Z" fill="black"/>
<path d="M411.399 350.006C410.402 350.006 409.497 349.761 408.685 349.27C407.872 348.764 407.228 348.082 406.753 347.223C406.293 346.364 406.063 345.398 406.063 344.325C406.063 343.252 406.293 342.286 406.753 341.427C407.228 340.568 407.864 339.886 408.662 339.38C409.474 338.874 410.387 338.621 411.399 338.621C412.227 338.621 412.963 338.797 413.607 339.15C414.266 339.487 414.795 339.963 415.194 340.576C415.592 341.174 415.815 341.872 415.861 342.669V345.958C415.815 346.74 415.592 347.438 415.194 348.051C414.81 348.664 414.289 349.147 413.63 349.5C412.986 349.837 412.242 350.006 411.399 350.006ZM411.744 348.051C412.771 348.051 413.599 347.706 414.228 347.016C414.856 346.311 415.171 345.414 415.171 344.325C415.171 343.574 415.025 342.922 414.734 342.37C414.458 341.803 414.059 341.366 413.538 341.059C413.016 340.737 412.411 340.576 411.721 340.576C411.031 340.576 410.417 340.737 409.881 341.059C409.359 341.381 408.945 341.826 408.639 342.393C408.347 342.945 408.202 343.581 408.202 344.302C408.202 345.038 408.347 345.69 408.639 346.257C408.945 346.809 409.367 347.246 409.904 347.568C410.44 347.89 411.054 348.051 411.744 348.051ZM415.033 349.776V346.832L415.424 344.164L415.033 341.519V338.851H417.126V349.776H415.033Z" fill="black"/>
<path d="M395.095 349.776L388.701 333.814H391.047L396.314 347.315H395.463L400.776 333.814H403.099L396.659 349.776H395.095Z" fill="black"/>
<path d="M372.508 350.006C372.079 350.006 371.719 349.86 371.427 349.569C371.151 349.262 371.013 348.902 371.013 348.488C371.013 348.059 371.151 347.706 371.427 347.43C371.719 347.139 372.079 346.993 372.508 346.993C372.938 346.993 373.29 347.139 373.566 347.43C373.858 347.706 374.003 348.059 374.003 348.488C374.003 348.902 373.858 349.262 373.566 349.569C373.29 349.86 372.938 350.006 372.508 350.006Z" fill="black"/>
<path d="M358.271 350.006C357.274 350.006 356.369 349.761 355.557 349.27C354.744 348.764 354.1 348.082 353.625 347.223C353.165 346.364 352.935 345.398 352.935 344.325C352.935 343.252 353.165 342.286 353.625 341.427C354.1 340.568 354.736 339.886 355.534 339.38C356.346 338.874 357.259 338.621 358.271 338.621C359.099 338.621 359.835 338.797 360.479 339.15C361.138 339.487 361.667 339.963 362.066 340.576C362.464 341.174 362.687 341.872 362.733 342.669V345.958C362.687 346.74 362.464 347.438 362.066 348.051C361.682 348.664 361.161 349.147 360.502 349.5C359.858 349.837 359.114 350.006 358.271 350.006ZM358.616 348.051C359.643 348.051 360.471 347.706 361.1 347.016C361.728 346.311 362.043 345.414 362.043 344.325C362.043 343.574 361.897 342.922 361.606 342.37C361.33 341.803 360.931 341.366 360.41 341.059C359.888 340.737 359.283 340.576 358.593 340.576C357.903 340.576 357.289 340.737 356.753 341.059C356.231 341.381 355.817 341.826 355.511 342.393C355.219 342.945 355.074 343.581 355.074 344.302C355.074 345.038 355.219 345.69 355.511 346.257C355.817 346.809 356.239 347.246 356.776 347.568C357.312 347.89 357.926 348.051 358.616 348.051ZM361.905 349.776V346.832L362.296 344.164L361.905 341.519V338.851H363.998V349.776H361.905Z" fill="black"/>
<path d="M341.181 350.006C340.169 350.006 339.264 349.761 338.467 349.27C337.669 348.764 337.033 348.082 336.558 347.223C336.098 346.364 335.868 345.398 335.868 344.325C335.868 343.252 336.098 342.286 336.558 341.427C337.033 340.568 337.669 339.886 338.467 339.38C339.264 338.874 340.169 338.621 341.181 338.621C341.993 338.621 342.729 338.797 343.389 339.15C344.048 339.487 344.577 339.963 344.976 340.576C345.39 341.174 345.62 341.872 345.666 342.669V345.958C345.62 346.74 345.397 347.438 344.999 348.051C344.6 348.664 344.071 349.147 343.412 349.5C342.752 349.837 342.009 350.006 341.181 350.006ZM341.526 348.051C342.216 348.051 342.814 347.89 343.32 347.568C343.841 347.246 344.247 346.809 344.539 346.257C344.83 345.69 344.976 345.046 344.976 344.325C344.976 343.574 344.822 342.922 344.516 342.37C344.224 341.818 343.818 341.381 343.297 341.059C342.791 340.737 342.193 340.576 341.503 340.576C340.813 340.576 340.207 340.737 339.686 341.059C339.164 341.381 338.75 341.826 338.444 342.393C338.152 342.945 338.007 343.581 338.007 344.302C338.007 345.038 338.152 345.69 338.444 346.257C338.75 346.809 339.164 347.246 339.686 347.568C340.222 347.89 340.836 348.051 341.526 348.051ZM346.931 349.776H344.838V346.832L345.229 344.164L344.838 341.519V333.354H346.931V349.776Z" fill="black"/>
<path d="M327.757 349.776V338.851H329.827V349.776H327.757ZM328.792 336.666C328.409 336.666 328.095 336.543 327.849 336.298C327.604 336.037 327.481 335.715 327.481 335.332C327.481 334.964 327.604 334.657 327.849 334.412C328.095 334.151 328.409 334.021 328.792 334.021C329.176 334.021 329.49 334.151 329.735 334.412C329.981 334.657 330.103 334.964 330.103 335.332C330.103 335.715 329.981 336.037 329.735 336.298C329.49 336.543 329.176 336.666 328.792 336.666Z" fill="black"/>
<path d="M315.266 354.583C314.147 354.583 313.15 354.376 312.276 353.962C311.417 353.548 310.727 352.965 310.206 352.214L311.54 350.857C311.985 351.424 312.514 351.854 313.127 352.145C313.74 352.452 314.469 352.605 315.312 352.605C316.431 352.605 317.313 352.306 317.957 351.708C318.616 351.125 318.946 350.336 318.946 349.339V346.625L319.314 344.164L318.946 341.726V338.851H321.016V349.339C321.016 350.382 320.771 351.294 320.28 352.076C319.805 352.858 319.13 353.471 318.256 353.916C317.397 354.361 316.401 354.583 315.266 354.583ZM315.266 349.592C314.269 349.592 313.372 349.354 312.575 348.879C311.793 348.404 311.172 347.752 310.712 346.924C310.252 346.081 310.022 345.138 310.022 344.095C310.022 343.052 310.252 342.125 310.712 341.312C311.172 340.484 311.793 339.832 312.575 339.357C313.372 338.866 314.269 338.621 315.266 338.621C316.125 338.621 316.884 338.79 317.543 339.127C318.202 339.464 318.724 339.94 319.107 340.553C319.506 341.151 319.72 341.856 319.751 342.669V345.567C319.705 346.364 319.483 347.07 319.084 347.683C318.701 348.281 318.179 348.749 317.52 349.086C316.861 349.423 316.109 349.592 315.266 349.592ZM315.68 347.637C316.355 347.637 316.945 347.491 317.451 347.2C317.972 346.909 318.371 346.502 318.647 345.981C318.923 345.444 319.061 344.823 319.061 344.118C319.061 343.413 318.915 342.799 318.624 342.278C318.348 341.741 317.957 341.327 317.451 341.036C316.945 340.729 316.347 340.576 315.657 340.576C314.967 340.576 314.361 340.729 313.84 341.036C313.319 341.327 312.905 341.741 312.598 342.278C312.307 342.799 312.161 343.405 312.161 344.095C312.161 344.785 312.307 345.398 312.598 345.935C312.905 346.472 313.319 346.893 313.84 347.2C314.377 347.491 314.99 347.637 315.68 347.637Z" fill="black"/>
<path d="M299.784 350.006C298.695 350.006 297.714 349.761 296.84 349.27C295.966 348.764 295.276 348.082 294.77 347.223C294.264 346.364 294.011 345.391 294.011 344.302C294.011 343.229 294.256 342.263 294.747 341.404C295.253 340.545 295.928 339.871 296.771 339.38C297.63 338.874 298.588 338.621 299.646 338.621C300.658 338.621 301.547 338.851 302.314 339.311C303.096 339.771 303.702 340.407 304.131 341.22C304.576 342.033 304.798 342.953 304.798 343.98C304.798 344.133 304.79 344.302 304.775 344.486C304.76 344.655 304.729 344.854 304.683 345.084H295.46V343.359H303.579L302.82 344.026C302.82 343.29 302.69 342.669 302.429 342.163C302.168 341.642 301.8 341.243 301.325 340.967C300.85 340.676 300.275 340.53 299.6 340.53C298.895 340.53 298.274 340.683 297.737 340.99C297.2 341.297 296.786 341.726 296.495 342.278C296.204 342.83 296.058 343.482 296.058 344.233C296.058 345 296.211 345.674 296.518 346.257C296.825 346.824 297.262 347.269 297.829 347.591C298.396 347.898 299.048 348.051 299.784 348.051C300.397 348.051 300.957 347.944 301.463 347.729C301.984 347.514 302.429 347.192 302.797 346.763L304.131 348.12C303.61 348.733 302.966 349.201 302.199 349.523C301.448 349.845 300.643 350.006 299.784 350.006Z" fill="black"/>
<path d="M284.592 349.776V334.274H286.662V349.776H284.592ZM281.901 340.737V338.851H289.353V340.737H281.901Z" fill="black"/>
<path d="M271.534 350.006C270.46 350.006 269.494 349.753 268.636 349.247C267.777 348.741 267.095 348.059 266.589 347.2C266.083 346.326 265.83 345.352 265.83 344.279C265.83 343.221 266.083 342.27 266.589 341.427C267.095 340.568 267.777 339.886 268.636 339.38C269.494 338.874 270.46 338.621 271.534 338.621C272.592 338.621 273.55 338.874 274.409 339.38C275.283 339.871 275.973 340.545 276.479 341.404C276.985 342.263 277.238 343.221 277.238 344.279C277.238 345.352 276.985 346.326 276.479 347.2C275.973 348.059 275.283 348.741 274.409 349.247C273.55 349.753 272.592 350.006 271.534 350.006ZM271.534 348.005C272.224 348.005 272.837 347.844 273.374 347.522C273.91 347.2 274.332 346.763 274.639 346.211C274.945 345.644 275.099 345 275.099 344.279C275.099 343.574 274.938 342.945 274.616 342.393C274.309 341.841 273.887 341.412 273.351 341.105C272.829 340.783 272.224 340.622 271.534 340.622C270.844 340.622 270.23 340.783 269.694 341.105C269.157 341.412 268.735 341.841 268.429 342.393C268.122 342.945 267.969 343.574 267.969 344.279C267.969 345 268.122 345.644 268.429 346.211C268.735 346.763 269.157 347.2 269.694 347.522C270.23 347.844 270.844 348.005 271.534 348.005Z" fill="black"/>
<path d="M253.991 349.776V338.851H256.061V349.776H253.991ZM256.061 343.543L255.279 343.198C255.279 341.803 255.601 340.691 256.245 339.863C256.889 339.035 257.816 338.621 259.028 338.621C259.58 338.621 260.078 338.721 260.523 338.92C260.967 339.104 261.381 339.418 261.765 339.863L260.408 341.266C260.178 341.021 259.925 340.844 259.649 340.737C259.373 340.63 259.051 340.576 258.683 340.576C257.916 340.576 257.287 340.821 256.797 341.312C256.306 341.803 256.061 342.546 256.061 343.543Z" fill="black"/>
<path d="M238.179 343.566V341.68H242.526C243.124 341.68 243.653 341.557 244.113 341.312C244.589 341.067 244.957 340.722 245.217 340.277C245.493 339.832 245.631 339.303 245.631 338.69C245.631 338.077 245.493 337.548 245.217 337.103C244.957 336.658 244.589 336.313 244.113 336.068C243.653 335.823 243.124 335.7 242.526 335.7H238.179V333.814H242.664C243.646 333.814 244.52 334.013 245.286 334.412C246.068 334.811 246.682 335.378 247.126 336.114C247.586 336.835 247.816 337.693 247.816 338.69C247.816 339.671 247.586 340.53 247.126 341.266C246.682 341.987 246.068 342.554 245.286 342.968C244.52 343.367 243.646 343.566 242.664 343.566H238.179ZM236.73 349.776V333.814H238.892V349.776H236.73Z" fill="black"/>
<path d="M215.454 350.006C214.442 350.006 213.538 349.761 212.74 349.27C211.943 348.764 211.307 348.082 210.831 347.223C210.371 346.364 210.141 345.398 210.141 344.325C210.141 343.252 210.371 342.286 210.831 341.427C211.307 340.568 211.943 339.886 212.74 339.38C213.538 338.874 214.442 338.621 215.454 338.621C216.267 338.621 217.003 338.797 217.662 339.15C218.322 339.487 218.851 339.963 219.249 340.576C219.663 341.174 219.893 341.872 219.939 342.669V345.958C219.893 346.74 219.671 347.438 219.272 348.051C218.874 348.664 218.345 349.147 217.685 349.5C217.026 349.837 216.282 350.006 215.454 350.006ZM215.799 348.051C216.489 348.051 217.087 347.89 217.593 347.568C218.115 347.246 218.521 346.809 218.812 346.257C219.104 345.69 219.249 345.046 219.249 344.325C219.249 343.574 219.096 342.922 218.789 342.37C218.498 341.818 218.092 341.381 217.57 341.059C217.064 340.737 216.466 340.576 215.776 340.576C215.086 340.576 214.481 340.737 213.959 341.059C213.438 341.381 213.024 341.826 212.717 342.393C212.426 342.945 212.28 343.581 212.28 344.302C212.28 345.038 212.426 345.69 212.717 346.257C213.024 346.809 213.438 347.246 213.959 347.568C214.496 347.89 215.109 348.051 215.799 348.051ZM221.204 349.776H219.111V346.832L219.502 344.164L219.111 341.519V333.354H221.204V349.776Z" fill="black"/>
<path d="M198.411 350.006C197.414 350.006 196.509 349.761 195.697 349.27C194.884 348.764 194.24 348.082 193.765 347.223C193.305 346.364 193.075 345.398 193.075 344.325C193.075 343.252 193.305 342.286 193.765 341.427C194.24 340.568 194.876 339.886 195.674 339.38C196.486 338.874 197.399 338.621 198.411 338.621C199.239 338.621 199.975 338.797 200.619 339.15C201.278 339.487 201.807 339.963 202.206 340.576C202.604 341.174 202.827 341.872 202.873 342.669V345.958C202.827 346.74 202.604 347.438 202.206 348.051C201.822 348.664 201.301 349.147 200.642 349.5C199.998 349.837 199.254 350.006 198.411 350.006ZM198.756 348.051C199.783 348.051 200.611 347.706 201.24 347.016C201.868 346.311 202.183 345.414 202.183 344.325C202.183 343.574 202.037 342.922 201.746 342.37C201.47 341.803 201.071 341.366 200.55 341.059C200.028 340.737 199.423 340.576 198.733 340.576C198.043 340.576 197.429 340.737 196.893 341.059C196.371 341.381 195.957 341.826 195.651 342.393C195.359 342.945 195.214 343.581 195.214 344.302C195.214 345.038 195.359 345.69 195.651 346.257C195.957 346.809 196.379 347.246 196.916 347.568C197.452 347.89 198.066 348.051 198.756 348.051ZM202.045 349.776V346.832L202.436 344.164L202.045 341.519V338.851H204.138V349.776H202.045Z" fill="black"/>
<path d="M181.321 350.006C180.309 350.006 179.404 349.761 178.607 349.27C177.81 348.764 177.173 348.082 176.698 347.223C176.238 346.364 176.008 345.398 176.008 344.325C176.008 343.252 176.238 342.286 176.698 341.427C177.173 340.568 177.81 339.886 178.607 339.38C179.404 338.874 180.309 338.621 181.321 338.621C182.134 338.621 182.87 338.797 183.529 339.15C184.188 339.487 184.717 339.963 185.116 340.576C185.53 341.174 185.76 341.872 185.806 342.669V345.958C185.76 346.74 185.538 347.438 185.139 348.051C184.74 348.664 184.211 349.147 183.552 349.5C182.893 349.837 182.149 350.006 181.321 350.006ZM181.666 348.051C182.356 348.051 182.954 347.89 183.46 347.568C183.981 347.246 184.388 346.809 184.679 346.257C184.97 345.69 185.116 345.046 185.116 344.325C185.116 343.574 184.963 342.922 184.656 342.37C184.365 341.818 183.958 341.381 183.437 341.059C182.931 340.737 182.333 340.576 181.643 340.576C180.953 340.576 180.347 340.737 179.826 341.059C179.305 341.381 178.891 341.826 178.584 342.393C178.293 342.945 178.147 343.581 178.147 344.302C178.147 345.038 178.293 345.69 178.584 346.257C178.891 346.809 179.305 347.246 179.826 347.568C180.363 347.89 180.976 348.051 181.666 348.051ZM187.071 349.776H184.978V346.832L185.369 344.164L184.978 341.519V333.354H187.071V349.776Z" fill="black"/>
<path d="M167.897 349.776V338.851H169.967V349.776H167.897ZM168.932 336.666C168.549 336.666 168.235 336.543 167.989 336.298C167.744 336.037 167.621 335.715 167.621 335.332C167.621 334.964 167.744 334.657 167.989 334.412C168.235 334.151 168.549 334.021 168.932 334.021C169.316 334.021 169.63 334.151 169.875 334.412C170.121 334.657 170.243 334.964 170.243 335.332C170.243 335.715 170.121 336.037 169.875 336.298C169.63 336.543 169.316 336.666 168.932 336.666Z" fill="black"/>
<path d="M157.406 349.776V334.274H159.476V349.776H157.406ZM154.715 340.737V338.851H162.167V340.737H154.715Z" fill="black"/>
<path d="M147.309 349.776V343.405C147.309 342.577 147.048 341.895 146.527 341.358C146.005 340.821 145.331 340.553 144.503 340.553C143.951 340.553 143.46 340.676 143.031 340.921C142.601 341.166 142.264 341.504 142.019 341.933C141.773 342.362 141.651 342.853 141.651 343.405L140.8 342.922C140.8 342.094 140.984 341.358 141.352 340.714C141.72 340.07 142.233 339.564 142.893 339.196C143.552 338.813 144.296 338.621 145.124 338.621C145.952 338.621 146.68 338.828 147.309 339.242C147.953 339.656 148.459 340.2 148.827 340.875C149.195 341.534 149.379 342.24 149.379 342.991V349.776H147.309ZM139.581 349.776V338.851H141.651V349.776H139.581Z" fill="black"/>
<path d="M128.63 350.006C127.541 350.006 126.56 349.761 125.686 349.27C124.812 348.764 124.122 348.082 123.616 347.223C123.11 346.364 122.857 345.391 122.857 344.302C122.857 343.229 123.102 342.263 123.593 341.404C124.099 340.545 124.773 339.871 125.617 339.38C126.475 338.874 127.434 338.621 128.492 338.621C129.504 338.621 130.393 338.851 131.16 339.311C131.942 339.771 132.547 340.407 132.977 341.22C133.421 342.033 133.644 342.953 133.644 343.98C133.644 344.133 133.636 344.302 133.621 344.486C133.605 344.655 133.575 344.854 133.529 345.084H124.306V343.359H132.425L131.666 344.026C131.666 343.29 131.535 342.669 131.275 342.163C131.014 341.642 130.646 341.243 130.171 340.967C129.695 340.676 129.12 340.53 128.446 340.53C127.74 340.53 127.119 340.683 126.583 340.99C126.046 341.297 125.632 341.726 125.341 342.278C125.049 342.83 124.904 343.482 124.904 344.233C124.904 345 125.057 345.674 125.364 346.257C125.67 346.824 126.107 347.269 126.675 347.591C127.242 347.898 127.894 348.051 128.63 348.051C129.243 348.051 129.803 347.944 130.309 347.729C130.83 347.514 131.275 347.192 131.643 346.763L132.977 348.12C132.455 348.733 131.811 349.201 131.045 349.523C130.293 349.845 129.488 350.006 128.63 350.006Z" fill="black"/>
<path d="M111.126 350.006C110.114 350.006 109.209 349.761 108.412 349.27C107.615 348.764 106.978 348.082 106.503 347.223C106.043 346.364 105.813 345.398 105.813 344.325C105.813 343.252 106.043 342.286 106.503 341.427C106.978 340.568 107.615 339.886 108.412 339.38C109.209 338.874 110.114 338.621 111.126 338.621C111.939 338.621 112.675 338.797 113.334 339.15C113.993 339.487 114.522 339.963 114.921 340.576C115.335 341.174 115.565 341.872 115.611 342.669V345.958C115.565 346.74 115.343 347.438 114.944 348.051C114.545 348.664 114.016 349.147 113.357 349.5C112.698 349.837 111.954 350.006 111.126 350.006ZM111.471 348.051C112.161 348.051 112.759 347.89 113.265 347.568C113.786 347.246 114.193 346.809 114.484 346.257C114.775 345.69 114.921 345.046 114.921 344.325C114.921 343.574 114.768 342.922 114.461 342.37C114.17 341.818 113.763 341.381 113.242 341.059C112.736 340.737 112.138 340.576 111.448 340.576C110.758 340.576 110.152 340.737 109.631 341.059C109.11 341.381 108.696 341.826 108.389 342.393C108.098 342.945 107.952 343.581 107.952 344.302C107.952 345.038 108.098 345.69 108.389 346.257C108.696 346.809 109.11 347.246 109.631 347.568C110.168 347.89 110.781 348.051 111.471 348.051ZM116.876 349.776H114.783V346.832L115.174 344.164L114.783 341.519V333.354H116.876V349.776Z" fill="black"/>
<path d="M97.2613 349.776V333.814H99.4233V349.776H97.2613Z" fill="black"/>
<defs>
<linearGradient id="paint0_linear_9_89" x1="624.87" y1="233.639" x2="80.5333" y2="272.793" gradientUnits="userSpaceOnUse">
<stop offset="0.0515694" stop-color="#73C6FA"/>
<stop offset="0.293269" stop-color="#BC85F5"/>
<stop offset="0.615385" stop-color="#EB73CB"/>
<stop offset="0.87056" stop-color="#F0A76C"/>
</linearGradient>
</defs>
</svg>
