<svg width="545" height="545" viewBox="0 0 545 545" fill="none" xmlns="http://www.w3.org/2000/svg">
<path d="M235.009 3.24786C285.092 -3.75553 335.791 3.37083 381.555 23.3406C398.525 9.16039 420.375 0.625793 444.218 0.625793C498.223 0.626004 542.001 44.4047 542.002 98.409C542.002 121.67 533.878 143.034 520.315 159.82C543.028 209.602 550.326 265.363 540.779 319.805C529.157 386.076 493.399 445.694 440.407 487.153C387.414 528.612 320.944 548.973 253.823 544.305C191.788 539.992 133.262 514.583 87.8453 472.552C84.9288 469.972 82.1257 467.264 79.4449 464.436C78.6061 463.59 77.7725 462.739 76.9439 461.881C30.1992 413.487 3.03605 349.494 0.697792 282.252C-1.64037 215.009 21.0115 149.283 64.2818 97.7596C107.552 46.2358 168.375 12.5659 235.009 3.24786ZM350.549 70.2527C316.458 57.1503 279.348 52.7657 242.651 57.8973C189.526 65.3261 141.036 92.1695 106.539 133.247C93.1987 149.131 82.3186 166.71 74.0962 185.395C111.238 143.906 165.048 117.818 224.915 117.818C336.985 117.818 427.837 209.23 427.837 321.991C427.837 379.552 404.161 431.546 366.076 468.661C380.292 461.884 393.826 453.535 406.406 443.693C448.654 410.64 477.162 363.109 486.427 310.273C493.476 270.076 489.004 228.977 473.921 191.597C464.554 194.581 454.575 196.193 444.218 196.193C390.214 196.193 346.434 152.414 346.434 98.409C346.434 88.621 347.873 79.1692 350.549 70.2527ZM224.915 173.922C160.399 173.922 105.582 215.694 85.7173 273.823C109.066 252.254 140.119 239.1 174.205 239.1C246.765 239.1 305.587 298.703 305.587 372.226C305.587 407.224 292.258 439.067 270.464 462.829C329.445 443.531 372.077 387.771 372.077 321.991C372.077 240.215 306.19 173.922 224.915 173.922ZM174.205 295.061C132.146 295.062 98.0513 329.61 98.0513 372.226C98.0514 389.406 103.593 405.274 112.962 418.096C117.988 424.017 123.469 429.533 129.351 434.592C141.932 443.898 157.435 449.39 174.205 449.39C216.263 449.39 250.359 414.843 250.359 372.226C250.359 329.61 216.263 295.061 174.205 295.061ZM444.218 54.4061C419.916 54.4061 400.215 74.1071 400.215 98.409C400.215 122.711 419.916 142.412 444.218 142.412C468.52 142.412 488.22 122.711 488.22 98.409C488.22 74.1072 468.52 54.4063 444.218 54.4061Z" fill="url(#paint0_linear_5_21)"/>
<defs>
<linearGradient id="paint0_linear_5_21" x1="544.87" y1="233.639" x2="0.533728" y2="272.793" gradientUnits="userSpaceOnUse">
<stop offset="0.0515694" stop-color="#73C6FA"/>
<stop offset="0.293269" stop-color="#BC85F5"/>
<stop offset="0.615385" stop-color="#EB73CB"/>
<stop offset="0.87056" stop-color="#F0A76C"/>
</linearGradient>
</defs>
</svg>
